<?xml version="1.0" encoding="UTF-8" standalone="no"?>
<svg
   xmlns:dc="http://purl.org/dc/elements/1.1/"
   xmlns:cc="http://creativecommons.org/ns#"
   xmlns:rdf="http://www.w3.org/1999/02/22-rdf-syntax-ns#"
   xmlns:svg="http://www.w3.org/2000/svg"
   xmlns="http://www.w3.org/2000/svg"
   id="svg8"
   version="1.1"
   viewBox="0 0 172.77618 22.065544"
   height="22.065544mm"
   width="172.77618mm">
  <defs
     id="defs2">
    <rect
       id="rect12"
       height="48.936981"
       width="172.22054"
       y="67.288353"
       x="15.057533" />
  </defs>
  <metadata
     id="metadata5">
    <rdf:RDF>
      <cc:Work
         rdf:about="">
        <dc:format>image/svg+xml</dc:format>
        <dc:type
           rdf:resource="http://purl.org/dc/dcmitype/StillImage" />
        <dc:title></dc:title>
      </cc:Work>
    </rdf:RDF>
  </metadata>
  <g
     transform="translate(-21.163637,-68.432829)"
     id="layer1">
    <g
       style="font-size:10.5833px;line-height:1.25;font-family:'League Spartan';-inkscape-font-specification:'League Spartan, Normal';white-space:pre;shape-inside:url(#rect12)"
       id="text10"
       transform="translate(37.173284,11.763698)"
       aria-label="midnight memos.">
      <g
         style="fill:#000000"
         id="g441">
        <g
           id="g542">
          <g
             style="fill:#000000"
             transform="matrix(1.8369515,0,0,1.8369515,-44.834427,-67.229228)"
             id="g176">
            <path
               style="fill:#000000"
               d="m 15.691639,76.54945 v -5.429233 h 1.873244 v 0.571498 h 0.02117 q 0.730248,-0.730248 1.555745,-0.730248 0.592665,0 1.111247,0.243416 0.518581,0.243416 0.783164,0.751415 0.825497,-0.994831 1.799161,-0.994831 0.86783,0 1.492245,0.486832 0.624415,0.486832 0.624415,1.523995 v 3.577156 h -1.873244 v -3.069157 q 0,-0.433915 -0.243416,-0.719665 -0.232833,-0.296332 -0.709081,-0.296332 -0.412749,0 -0.634998,0.253999 -0.211666,0.243416 -0.232833,0.592665 v 3.23849 H 19.38521 v -3.069157 q 0,-0.433915 -0.243416,-0.719665 -0.232832,-0.296332 -0.709081,-0.296332 -0.433915,0 -0.656164,0.275166 -0.211666,0.264582 -0.211666,0.634998 v 3.17499 z"
               id="path63" />
            <path
               style="fill:#000000"
               d="m 26.28949,68.093393 q 0.328082,-0.328082 0.783164,-0.328082 0.455082,0 0.783164,0.328082 0.328083,0.328083 0.328083,0.783164 0,0.455082 -0.328083,0.783165 -0.328082,0.328082 -0.783164,0.328082 -0.455082,0 -0.783164,-0.328082 -0.328082,-0.328083 -0.328082,-0.783165 0,-0.455081 0.328082,-0.783164 z m -0.179916,3.026824 v 5.429233 h 1.873244 v -5.429233 z"
               id="path65" />
            <path
               style="fill:#000000"
               d="m 29.683918,75.882702 q -0.761997,-0.836081 -0.761997,-2.042577 0,-1.206496 0.761997,-2.042577 0.761998,-0.836081 1.936744,-0.836081 1.079497,0 1.777995,0.677332 v -4.190987 h 1.873244 v 9.101638 h -1.852078 v -0.613832 h -0.02117 q -0.698498,0.772581 -1.777995,0.772581 -1.174746,0 -1.936744,-0.825497 z m 1.587495,-2.963324 q -0.359832,0.359832 -0.359832,0.920747 0,0.560915 0.349249,0.920747 0.349249,0.349249 0.920747,0.349249 0.550332,0 0.899581,-0.359832 0.359832,-0.359832 0.359832,-0.910164 0,-0.560915 -0.370416,-0.920747 -0.359832,-0.359832 -0.888997,-0.359832 -0.539748,0 -0.910164,0.359832 z"
               id="path67" />
            <path
               style="fill:#000000"
               d="m 36.548179,76.54945 v -5.429233 h 1.873244 v 0.571498 h 0.02117 q 0.730248,-0.730248 1.555745,-0.730248 0.402165,0 0.793747,0.105833 0.402166,0.105833 0.761998,0.328083 0.370415,0.222249 0.592665,0.634998 0.232832,0.402165 0.232832,0.941913 v 3.577156 h -1.873244 v -3.069157 q 0,-0.423332 -0.275165,-0.740831 -0.264583,-0.317499 -0.698498,-0.317499 -0.423332,0 -0.772581,0.328082 -0.338666,0.328082 -0.338666,0.730248 v 3.069157 z"
               id="path69" />
            <path
               style="fill:#000000"
               d="m 43.714727,68.093393 q 0.328082,-0.328082 0.783164,-0.328082 0.455082,0 0.783164,0.328082 0.328082,0.328083 0.328082,0.783164 0,0.455082 -0.328082,0.783165 -0.328082,0.328082 -0.783164,0.328082 -0.455082,0 -0.783164,-0.328082 -0.328083,-0.328083 -0.328083,-0.783165 0,-0.455081 0.328083,-0.783164 z m -0.179916,3.026824 v 5.429233 h 1.873244 v -5.429233 z"
               id="path71" />
            <path
               style="fill:#000000"
               d="m 46.495325,77.882945 1.534578,-0.751414 q 0.423332,0.698498 1.471079,0.698498 0.486832,0 0.89958,-0.317499 0.423332,-0.306916 0.423332,-0.952497 v -0.402165 q -0.497415,0.550331 -1.777994,0.550331 -1.174746,0 -1.936744,-0.825497 -0.761998,-0.836081 -0.761998,-2.042577 0,-1.206496 0.761998,-2.042577 0.761998,-0.836081 1.936744,-0.836081 1.047747,0 1.746244,0.645582 h 0.03175 v -0.486832 h 1.873244 v 5.577399 q 0,1.322912 -0.878414,2.042577 -0.878413,0.719664 -2.317742,0.719664 -2.328326,0 -3.005657,-1.576912 z m 2.201326,-4.963567 q -0.359832,0.359832 -0.359832,0.920747 0,0.560915 0.349249,0.920747 0.349249,0.349249 0.920747,0.349249 0.550331,0 0.89958,-0.359832 0.359832,-0.359832 0.359832,-0.910164 0,-0.560915 -0.370415,-0.920747 -0.359832,-0.359832 -0.888997,-0.359832 -0.539749,0 -0.910164,0.359832 z"
               id="path73" />
            <path
               style="fill:#000000"
               d="m 53.973419,76.54945 v -9.101638 h 1.873244 v 4.243903 h 0.02117 q 0.730248,-0.730248 1.555746,-0.730248 0.402165,0 0.793747,0.105833 0.402165,0.105833 0.761998,0.328083 0.370415,0.222249 0.592664,0.634998 0.232833,0.402165 0.232833,0.941913 v 3.577156 h -1.873244 v -3.069157 q 0,-0.423332 -0.275166,-0.740831 -0.264582,-0.317499 -0.698498,-0.317499 -0.423332,0 -0.772581,0.328082 -0.338665,0.328082 -0.338665,0.730248 v 3.069157 z"
               id="path75" />
            <path
               style="fill:#000000"
               d="m 61.215536,71.120217 v -2.02141 h 1.873244 v 2.02141 h 1.142996 v 1.428745 H 63.08878 v 1.725078 q 0,0.751415 0.423332,0.751415 0.105833,0 0.222249,-0.04233 0.116416,-0.04233 0.179916,-0.08467 l 0.0635,-0.04233 0.465665,1.513412 q -0.603248,0.338665 -1.375829,0.338665 -0.529165,0 -0.910164,-0.179916 -0.380999,-0.190499 -0.582081,-0.497415 -0.1905,-0.317499 -0.275166,-0.656165 -0.08467,-0.349248 -0.08467,-0.740831 v -2.08491 H 60.432367 V 71.12022 Z"
               id="path77" />
            <path
               style="fill:#000000"
               d="m 67.96735,76.54945 v -5.429233 h 1.873244 v 0.571498 h 0.02117 q 0.730248,-0.730248 1.555745,-0.730248 0.592665,0 1.111247,0.243416 0.518581,0.243416 0.783164,0.751415 0.825497,-0.994831 1.799161,-0.994831 0.86783,0 1.492245,0.486832 0.624415,0.486832 0.624415,1.523995 v 3.577156 h -1.873244 v -3.069157 q 0,-0.433915 -0.243416,-0.719665 -0.232833,-0.296332 -0.709081,-0.296332 -0.412749,0 -0.634998,0.253999 -0.211666,0.243416 -0.232833,0.592665 v 3.23849 h -1.873244 v -3.069157 q 0,-0.433915 -0.243416,-0.719665 -0.232832,-0.296332 -0.709081,-0.296332 -0.433915,0 -0.656164,0.275166 -0.211666,0.264582 -0.211666,0.634998 v 3.17499 z"
               id="path79" />
            <path
               style="fill:#000000"
               d="m 83.878017,74.094124 h -3.936988 q 0,0.571498 0.370416,0.846664 0.370415,0.275166 0.80433,0.275166 0.455082,0 0.719665,-0.116416 0.264582,-0.127 0.603248,-0.486832 l 1.354662,0.677331 q -0.846664,1.418162 -2.815158,1.418162 -1.227662,0 -2.106076,-0.83608 -0.878414,-0.846664 -0.878414,-2.031994 0,-1.18533 0.878414,-2.031994 0.878414,-0.846664 2.106076,-0.846664 1.291163,0 2.095494,0.751415 0.814914,0.740831 0.814914,2.127243 0,0.190499 -0.01058,0.253999 z m -3.884071,-1.037163 h 2.063743 q -0.0635,-0.423332 -0.338666,-0.645581 -0.264582,-0.232833 -0.687914,-0.232833 -0.465665,0 -0.740831,0.243416 -0.275166,0.243416 -0.296332,0.634998 z"
               id="path81" />
            <path
               style="fill:#000000"
               d="m 84.751804,76.54945 v -5.429233 h 1.873244 v 0.571498 h 0.02117 q 0.730247,-0.730248 1.555745,-0.730248 0.592664,0 1.111246,0.243416 0.518582,0.243416 0.783164,0.751415 0.825498,-0.994831 1.799161,-0.994831 0.867831,0 1.492246,0.486832 0.624414,0.486832 0.624414,1.523995 V 76.54945 H 92.13895 v -3.069157 q 0,-0.433915 -0.243416,-0.719665 -0.232832,-0.296332 -0.709081,-0.296332 -0.412748,0 -0.634998,0.253999 -0.211666,0.243416 -0.232832,0.592665 v 3.23849 h -1.873244 v -3.069157 q 0,-0.433915 -0.243416,-0.719665 -0.232833,-0.296332 -0.709081,-0.296332 -0.433916,0 -0.656165,0.275166 -0.211666,0.264582 -0.211666,0.634998 v 3.17499 z"
               id="path83" />
            <path
               style="fill:#000000"
               d="m 95.677733,75.903868 q -0.89958,-0.80433 -0.89958,-2.063743 0,-1.259413 0.941913,-2.063743 0.941914,-0.814915 2.328326,-0.814915 1.365246,0 2.296578,0.814915 0.94191,0.814914 0.94191,2.063743 0,1.248829 -0.92075,2.063743 -0.910159,0.804331 -2.317738,0.804331 -1.460495,0 -2.370659,-0.804331 z m 1.449912,-2.98449 q -0.359832,0.359832 -0.359832,0.920747 0,0.560915 0.349249,0.920747 0.349249,0.349249 0.920747,0.349249 0.550331,0 0.89958,-0.359832 0.359832,-0.359832 0.359832,-0.910164 0,-0.560915 -0.370415,-0.920747 -0.359832,-0.359832 -0.888997,-0.359832 -0.539748,0 -0.910164,0.359832 z"
               id="path85" />
            <path
               style="fill:#000000"
               d="m 104.4751,70.961467 q 0.46567,0 0.92075,0.105833 0.45508,0.105833 0.67733,0.211666 l 0.22225,0.105833 -0.61383,1.227663 q -0.635,-0.338665 -1.2065,-0.338665 -0.3175,0 -0.45508,0.07408 -0.127,0.0635 -0.127,0.253999 0,0.04233 0.0106,0.08467 0.0106,0.04233 0.0423,0.08467 0.0317,0.03175 0.0529,0.0635 0.0318,0.02117 0.0952,0.05292 0.0635,0.03175 0.0953,0.05292 0.0423,0.01058 0.127,0.04233 0.0847,0.03175 0.127,0.05292 0.0423,0.01058 0.13758,0.04233 0.10584,0.03175 0.15875,0.04233 0.32808,0.09525 0.5715,0.211666 0.24342,0.116416 0.508,0.317499 0.27516,0.201082 0.42333,0.507998 0.14817,0.306916 0.14817,0.698498 0,1.852077 -2.57174,1.852077 -0.58209,0 -1.11125,-0.179916 -0.51858,-0.179916 -0.75142,-0.359832 l -0.23283,-0.190499 0.762,-1.28058 q 0.0847,0.07408 0.22225,0.179916 0.13758,0.09525 0.49741,0.275166 0.35984,0.169333 0.62442,0.169333 0.58208,0 0.58208,-0.391582 0,-0.179916 -0.14817,-0.275166 -0.14816,-0.105833 -0.50799,-0.232833 -0.34925,-0.126999 -0.55034,-0.232832 -0.50799,-0.264583 -0.80433,-0.592665 -0.29633,-0.338666 -0.29633,-0.888997 0,-0.825497 0.635,-1.280579 0.64558,-0.465666 1.73566,-0.465666 z"
               id="path87" />
            <path
               style="fill:#000000"
               d="m 108.53049,74.284624 q 0.508,0 0.85725,0.359832 0.35983,0.349249 0.35983,0.857247 0,0.497415 -0.35983,0.857247 -0.34925,0.349249 -0.85725,0.349249 -0.49742,0 -0.85725,-0.349249 -0.34925,-0.359832 -0.34925,-0.857247 0,-0.507998 0.34925,-0.857247 0.35983,-0.359832 0.85725,-0.359832 z"
               id="path89" />
          </g>
        </g>
      </g>
    </g>
  </g>
</svg>
